<?xml version="1.0" standalone="no"?>
<!DOCTYPE svg PUBLIC "-//W3C//DTD SVG 20010904//EN"
 "http://www.w3.org/TR/2001/REC-SVG-20010904/DTD/svg10.dtd">
<svg version="1.0" xmlns="http://www.w3.org/2000/svg"
 width="300.000000pt" height="300.000000pt" viewBox="0 0 300.000000 300.000000"
 preserveAspectRatio="xMidYMid meet">
<metadata>
Created by potrace 1.10, written by Peter Selinger 2001-2011
</metadata>
<g transform="translate(0.000000,300.000000) scale(0.100000,-0.100000)"
fill="#000000" stroke="none">
<path d="M1816 2044 c-9 -8 -16 -23 -16 -33 0 -9 -20 -37 -45 -61 l-44 -43
-43 12 c-24 7 -71 28 -106 47 l-63 34 -41 -26 c-57 -36 -158 -73 -223 -80 -44
-5 -55 -10 -55 -25 0 -15 10 -19 63 -21 47 -2 62 -7 62 -18 0 -12 -19 -16 -97
-18 -90 -2 -98 -4 -98 -22 0 -19 7 -20 105 -20 98 0 105 -1 105 -20 0 -19 -7
-20 -90 -20 -83 0 -90 -2 -90 -20 0 -16 8 -19 57 -22 45 -2 59 -7 61 -20 3
-14 -6 -17 -45 -20 -35 -2 -48 -7 -48 -18 0 -12 22 -16 120 -20 104 -4 120 -7
123 -22 3 -17 -9 -18 -146 -18 -119 0 -151 -3 -155 -14 -9 -23 2 -26 89 -26
61 0 83 -4 87 -14 8 -20 -2 -26 -40 -26 -31 0 -55 -22 -40 -36 3 -3 48 -7 99
-7 75 -2 93 -5 93 -17 0 -12 -17 -16 -75 -20 -61 -4 -75 -8 -78 -22 -4 -19 1
-21 64 -18 35 1 51 -6 115 -54 41 -31 78 -56 84 -56 22 0 147 104 189 158 25
31 60 90 78 129 30 67 35 73 63 73 18 0 38 -8 48 -20 23 -28 63 -26 83 5 20
30 11 58 -22 74 -26 12 -64 0 -64 -19 0 -6 -16 -10 -35 -10 -19 0 -35 3 -35 8
0 4 5 39 11 77 5 39 7 89 4 113 -6 41 -7 42 -43 42 l-36 0 34 35 c24 25 43 35
65 35 38 0 55 16 55 52 0 43 -53 64 -84 32z m51 -29 c7 -20 -2 -29 -21 -22 -9
4 -13 13 -10 22 8 19 23 19 31 0z m-285 -100 c41 -20 103 -42 139 -49 l64 -13
-1 -75 c-1 -42 -4 -88 -8 -102 -6 -25 -10 -26 -70 -26 -62 0 -64 1 -69 29 -9
42 -53 89 -98 102 l-39 12 0 79 c0 43 2 78 4 78 2 0 37 -16 78 -35z m-102 -59
l0 -74 -36 -21 c-37 -22 -42 -41 -6 -22 33 17 91 13 123 -9 85 -61 33 -199
-75 -201 -38 0 -40 -1 -21 -14 18 -13 20 -23 17 -100 -4 -93 -9 -99 -55 -61
-27 22 -27 23 -12 52 15 28 14 30 -10 52 -15 12 -36 22 -48 22 -28 0 -42 10
-43 32 -1 13 9 19 45 24 25 4 52 11 59 17 10 8 16 7 22 -3 7 -12 10 -11 16 3
4 10 17 17 33 17 65 0 94 78 46 125 -19 20 -34 25 -72 24 -50 0 -50 -1 25 -31
31 -12 49 -43 40 -68 -6 -18 -88 -52 -88 -36 0 27 -45 55 -95 58 -62 4 -70 26
-26 67 31 29 39 55 21 66 -5 3 -9 20 -8 38 1 18 0 38 -3 45 -4 12 108 69 139
71 8 1 12 -20 12 -73z m460 -220 c0 -20 -19 -31 -32 -18 -6 6 -7 15 -4 21 10
16 36 13 36 -3z m-180 -23 c0 -21 -67 -138 -102 -178 -44 -50 -133 -125 -149
-125 -5 0 -9 41 -9 90 0 78 3 91 18 96 49 14 88 45 107 82 19 40 19 40 77 41
32 0 58 -3 58 -6z"/>
<path d="M1025 1721 c-11 -19 5 -31 41 -31 28 0 35 4 32 18 -4 19 -62 30 -73
13z"/>
<path d="M1055 1641 c-11 -19 5 -31 41 -31 28 0 35 4 32 18 -4 19 -62 30 -73
13z"/>
<path d="M1093 1475 c-7 -21 8 -31 44 -30 21 0 28 5 28 20 0 27 -62 35 -72 10z"/>
<path d="M2050 1075 c0 -50 4 -85 10 -85 6 0 10 35 10 85 0 50 -4 85 -10 85
-6 0 -10 -35 -10 -85z"/>
<path d="M838 1069 l4 -81 40 5 c56 8 78 31 78 83 0 52 -25 74 -85 74 l-40 0
3 -81z m84 44 c36 -32 15 -93 -32 -93 -30 0 -30 1 -30 55 0 50 2 55 22 55 12
0 30 -7 40 -17z"/>
<path d="M1676 1113 c9 -21 23 -57 31 -80 8 -24 21 -43 28 -43 8 0 22 24 33
53 11 28 25 65 31 80 10 25 9 28 -6 25 -10 -2 -24 -26 -36 -63 l-20 -60 -22
60 c-14 36 -29 61 -39 63 -16 3 -16 1 0 -35z"/>
<path d="M2100 1120 c-6 -11 -8 -26 -3 -33 4 -6 6 -24 5 -38 -4 -30 22 -62 46
-57 24 5 27 28 3 28 -17 0 -21 6 -21 35 0 28 4 35 20 35 11 0 20 5 20 10 0 6
-9 10 -20 10 -11 0 -20 7 -20 15 0 22 -17 18 -30 -5z"/>
<path d="M991 1063 c14 -32 18 -58 14 -80 -10 -52 13 -39 40 24 14 31 28 68
32 81 9 38 -20 22 -31 -16 -12 -41 -22 -40 -36 3 -6 19 -18 35 -25 35 -11 0
-10 -10 6 -47z"/>
<path d="M1100 1048 c0 -43 3 -58 13 -55 7 2 11 17 9 39 -2 23 2 39 13 48 21
18 33 4 37 -44 5 -60 28 -59 28 2 0 58 -12 72 -63 70 l-37 -1 0 -59z"/>
<path d="M1225 1101 c-6 -11 -5 -12 34 -14 38 -3 37 -25 -1 -29 -28 -2 -34 -7
-36 -30 -3 -29 -2 -30 56 -32 l33 -1 -3 55 -3 55 -37 3 c-20 2 -39 -2 -43 -7z
m65 -66 c0 -9 -7 -18 -16 -22 -18 -7 -39 11 -30 26 11 17 46 13 46 -4z"/>
<path d="M1337 1052 c2 -70 21 -81 25 -15 3 40 6 48 23 48 17 0 20 -8 23 -47
2 -27 7 -48 12 -48 5 0 10 21 12 48 3 39 6 47 23 47 17 0 20 -8 23 -47 2 -27
8 -48 13 -48 6 0 9 24 7 58 -3 51 -5 57 -26 60 -13 2 -29 -2 -37 -8 -8 -7 -15
-7 -19 -1 -4 5 -23 10 -44 9 l-37 0 2 -56z"/>
<path d="M1525 1053 c3 -80 25 -84 25 -4 0 44 -4 61 -13 61 -10 0 -13 -16 -12
-57z"/>
<path d="M1588 1099 c-25 -14 -24 -71 2 -94 13 -12 27 -15 45 -11 34 9 32 26
-4 26 -21 0 -32 6 -36 20 -9 29 13 53 42 45 16 -4 23 -1 23 10 0 17 -45 20
-72 4z"/>
<path d="M1815 1100 c-6 -10 -5 -11 34 -13 37 -3 39 -27 2 -27 -35 0 -51 -23
-34 -49 7 -10 24 -16 49 -15 l39 0 -4 50 c-1 27 -5 52 -8 57 -6 11 -71 9 -78
-3z m65 -65 c0 -9 -7 -18 -16 -22 -18 -7 -39 11 -30 26 11 17 46 13 46 -4z"/>
<path d="M1929 1063 c4 -61 14 -73 59 -69 l37 4 3 56 c2 45 0 56 -13 56 -11 0
-15 -11 -15 -44 0 -43 -11 -58 -37 -49 -8 3 -13 22 -13 49 0 29 -4 44 -13 44
-8 0 -11 -14 -8 -47z"/>
</g>
</svg>
