<?xml version="1.0" encoding="UTF-8"?>
<svg width="40" height="40" viewBox="0 0 40 40" fill="none" xmlns="http://www.w3.org/2000/svg">
  <!-- Shield Background -->
  <path d="M20 2L4 9V20C4 28.8 11.2 37.2 20 39C28.8 37.2 36 28.8 36 20V9L20 2Z" fill="#1A2E4C"/>

  <!-- Shield Segments -->
  <path d="M20 2L4 9L20 16L36 9L20 2Z" fill="#3ECFB2" fill-opacity="0.8"/>
  <path d="M12 12.5V25C12 29.5 15.6 33.8 20 35C24.4 33.8 28 29.5 28 25V12.5L20 16L12 12.5Z" fill="#2A6A9A" fill-opacity="0.6"/>

  <!-- Circuit Nodes -->
  <circle cx="20" cy="20" r="2" fill="#3ECFB2"/>
  <circle cx="14" cy="16" r="1.5" fill="#3ECFB2"/>
  <circle cx="26" cy="16" r="1.5" fill="#3ECFB2"/>
  <circle cx="20" cy="28" r="1.5" fill="#3ECFB2"/>

  <!-- Circuit Lines -->
  <path d="M20 18L14 16M20 18L26 16M20 18V22" stroke="#3ECFB2" stroke-width="1"/>
  <path d="M20 22V28" stroke="#3ECFB2" stroke-width="1" stroke-dasharray="2 1"/>
</svg>
